<mxfile host="Electron" modified="2023-04-27T14:03:00.333Z" agent="Mozilla/5.0 (Windows NT 10.0; Win64; x64) AppleWebKit/537.36 (KHTML, like Gecko) draw.io/21.2.1 Chrome/112.0.5615.87 Electron/24.1.2 Safari/537.36" etag="3vh77WtcaypSVKiin_LF" version="21.2.1" type="device">
  <diagram name="Page-1" id="R3c6v0NDPtbfQRwbU_xb">
    <mxGraphModel dx="989" dy="577" grid="1" gridSize="10" guides="1" tooltips="1" connect="1" arrows="1" fold="1" page="1" pageScale="1" pageWidth="850" pageHeight="1100" math="0" shadow="0">
      <root>
        <mxCell id="0" />
        <mxCell id="1" parent="0" />
        <mxCell id="9hJinpdAS0rLX7Sss6xC-1" value="Beacon" style="rounded=0;whiteSpace=wrap;html=1;labelPosition=center;verticalLabelPosition=top;align=center;verticalAlign=bottom;" vertex="1" parent="1">
          <mxGeometry x="70" y="310" width="110" height="220" as="geometry" />
        </mxCell>
        <mxCell id="9hJinpdAS0rLX7Sss6xC-7" style="rounded=0;orthogonalLoop=1;jettySize=auto;html=1;exitX=1;exitY=0.5;exitDx=0;exitDy=0;entryX=0;entryY=0;entryDx=0;entryDy=0;endArrow=none;endFill=0;" edge="1" parent="1" source="9hJinpdAS0rLX7Sss6xC-2" target="9hJinpdAS0rLX7Sss6xC-5">
          <mxGeometry relative="1" as="geometry" />
        </mxCell>
        <mxCell id="9hJinpdAS0rLX7Sss6xC-8" style="rounded=0;orthogonalLoop=1;jettySize=auto;html=1;exitX=1;exitY=0.5;exitDx=0;exitDy=0;entryX=0;entryY=0;entryDx=0;entryDy=0;endArrow=none;endFill=0;" edge="1" parent="1" source="9hJinpdAS0rLX7Sss6xC-2" target="9hJinpdAS0rLX7Sss6xC-6">
          <mxGeometry relative="1" as="geometry" />
        </mxCell>
        <mxCell id="9hJinpdAS0rLX7Sss6xC-2" value="antenna" style="ellipse;whiteSpace=wrap;html=1;aspect=fixed;labelPosition=center;verticalLabelPosition=top;align=center;verticalAlign=bottom;" vertex="1" parent="1">
          <mxGeometry x="170" y="340" width="20" height="20" as="geometry" />
        </mxCell>
        <mxCell id="9hJinpdAS0rLX7Sss6xC-3" value="Schelde" style="rounded=0;whiteSpace=wrap;html=1;" vertex="1" parent="1">
          <mxGeometry x="280" y="530" width="170" height="60" as="geometry" />
        </mxCell>
        <mxCell id="9hJinpdAS0rLX7Sss6xC-5" value="min" style="ellipse;whiteSpace=wrap;html=1;aspect=fixed;labelPosition=center;verticalLabelPosition=top;align=center;verticalAlign=bottom;" vertex="1" parent="1">
          <mxGeometry x="540" y="490" width="20" height="20" as="geometry" />
        </mxCell>
        <mxCell id="9hJinpdAS0rLX7Sss6xC-9" style="rounded=0;orthogonalLoop=1;jettySize=auto;html=1;exitX=0;exitY=1;exitDx=0;exitDy=0;entryX=1;entryY=0;entryDx=0;entryDy=0;endArrow=none;endFill=0;" edge="1" parent="1" source="9hJinpdAS0rLX7Sss6xC-6" target="9hJinpdAS0rLX7Sss6xC-5">
          <mxGeometry relative="1" as="geometry" />
        </mxCell>
        <mxCell id="9hJinpdAS0rLX7Sss6xC-6" value="max" style="ellipse;whiteSpace=wrap;html=1;aspect=fixed;labelPosition=center;verticalLabelPosition=top;align=center;verticalAlign=bottom;" vertex="1" parent="1">
          <mxGeometry x="620" y="410" width="20" height="20" as="geometry" />
        </mxCell>
      </root>
    </mxGraphModel>
  </diagram>
</mxfile>
